<?xml version="1.0" encoding="UTF-8" standalone="no"?>
<!-- Created with Inkscape (http://www.inkscape.org/) -->

<svg
   width="87.274254mm"
   height="156.25713mm"
   viewBox="0 0 87.274254 156.25713"
   version="1.1"
   id="svg5"
   xml:space="preserve"
   inkscape:version="1.2.2 (732a01da63, 2022-12-09)"
   sodipodi:docname="CAR.svg"
   inkscape:export-filename="CAR.svg"
   inkscape:export-xdpi="96"
   inkscape:export-ydpi="96"
   xmlns:inkscape="http://www.inkscape.org/namespaces/inkscape"
   xmlns:sodipodi="http://sodipodi.sourceforge.net/DTD/sodipodi-0.dtd"
   xmlns="http://www.w3.org/2000/svg"
   xmlns:svg="http://www.w3.org/2000/svg"><sodipodi:namedview
     id="namedview7"
     pagecolor="#ffffff"
     bordercolor="#000000"
     borderopacity="0.25"
     inkscape:showpageshadow="2"
     inkscape:pageopacity="0.0"
     inkscape:pagecheckerboard="0"
     inkscape:deskcolor="#d1d1d1"
     inkscape:document-units="mm"
     showgrid="false"
     inkscape:zoom="1.0129245"
     inkscape:cx="303.57642"
     inkscape:cy="334.18087"
     inkscape:window-width="1920"
     inkscape:window-height="991"
     inkscape:window-x="-9"
     inkscape:window-y="-9"
     inkscape:window-maximized="1"
     inkscape:current-layer="layer1" /><defs
     id="defs2" /><g
     inkscape:label="Calque 1"
     inkscape:groupmode="layer"
     id="layer1"
     transform="translate(-59.517297,-62.79875)"><path
       id="rect478"
       style="display:inline;fill:#ffffff;stroke:#717171;stroke-width:0;stroke-linejoin:round;paint-order:stroke fill markers;fill-opacity:1"
       d="m 73.776375,62.798751 c -1.374733,0 -2.481502,1.106252 -2.481502,2.480985 v 48.279224 l -4.158919,-2.78433 -7.618657,6.55723 11.777576,-0.24237 v 99.48489 c 0,1.37473 1.106769,2.4815 2.481502,2.4815 h 59.313175 c 1.37473,0 2.4815,-1.10677 2.4815,-2.4815 v -99.47352 l 11.22051,0.231 -7.61918,-6.55723 -3.60133,2.41071 V 65.279736 c 0,-1.374733 -1.10677,-2.480985 -2.4815,-2.480985 z" /><g
       id="g673"
       style="display:inline;fill:#475154;fill-opacity:1"><path
         style="fill:#475154;fill-opacity:1;stroke:#717171;stroke-width:0;stroke-linejoin:round;paint-order:stroke fill markers"
         d="m 126.33582,132.15392 -45.713618,0.0924 -5.818099,-17.639 56.518657,-0.5541 z"
         id="path590"
         sodipodi:nodetypes="ccccc" /><path
         id="path592"
         style="fill:#475154;fill-opacity:1;stroke:#717171;stroke-width:0;stroke-linejoin:round;paint-order:stroke fill markers"
         d="m 132.80016,117.00836 -5.81773,17.45423 0.11472,16.40314 5.96966,-2.64274 z m 0.27854,32.62333 -5.97173,2.64325 0.15245,21.80642 6.09523,7.84965 z" /><path
         id="path597"
         style="fill:#475154;fill-opacity:1;stroke:#717171;stroke-width:0;stroke-linejoin:round;paint-order:stroke fill markers"
         d="m 73.696435,117.00836 5.81773,17.45423 -0.11472,16.40314 -5.96966,-2.64274 z m -0.27854,32.62333 5.97173,2.64325 -0.15245,21.80642 -6.09523,7.84965 z" /><path
         style="fill:#475154;fill-opacity:1;stroke:#717171;stroke-width:0;stroke-linejoin:round;paint-order:stroke fill markers"
         d="m 126.33582,181.19226 -45.713618,-0.0924 -5.818099,17.639 56.518657,0.5541 z"
         id="path657"
         sodipodi:nodetypes="ccccc" /></g><path
       style="fill:#a2b8bf;fill-opacity:1;stroke:#717171;stroke-width:0;stroke-linejoin:round;paint-order:stroke fill markers"
       d="m 92.720148,114.42257 c -1.938659,7.69295 -8.496268,17.8237 -8.496268,17.8237 l 7.751859,0.006 c 0.488953,-6.05773 1.828963,-11.36319 4.71549,-17.8293 -0.150008,-0.0339 -3.893525,0.11067 -3.971081,5e-5 z"
       id="path1347"
       sodipodi:nodetypes="ccccc" /><path
       style="fill:#a2b8bf;fill-opacity:1;stroke:#717171;stroke-width:0;stroke-linejoin:round;paint-order:stroke fill markers"
       d="m 112.033,114.24942 c -2.07211,7.07651 -8.98029,17.94227 -8.98029,17.94227 l 7.42023,4.7e-4 c 0.50285,-5.15339 1.70471,-13.15621 4.52106,-17.97737 0,0 -2.92061,0.0287 -2.961,0.0346 z"
       id="path1349"
       sodipodi:nodetypes="cccccc" /></g></svg>
