<?xml version="1.0" encoding="UTF-8" standalone="no"?>
<!-- Created with Inkscape (http://www.inkscape.org/) -->

<svg
   width="181.00798mm"
   height="259.13614mm"
   viewBox="0 0 181.00798 259.13614"
   version="1.1"
   id="svg34015"
   xml:space="preserve"
   inkscape:version="1.2.2 (732a01da63, 2022-12-09)"
   sodipodi:docname="MAP.svg"
   xmlns:inkscape="http://www.inkscape.org/namespaces/inkscape"
   xmlns:sodipodi="http://sodipodi.sourceforge.net/DTD/sodipodi-0.dtd"
   xmlns="http://www.w3.org/2000/svg"
   xmlns:svg="http://www.w3.org/2000/svg"><sodipodi:namedview
     id="namedview34017"
     pagecolor="#ffffff"
     bordercolor="#000000"
     borderopacity="0.25"
     inkscape:showpageshadow="2"
     inkscape:pageopacity="0.0"
     inkscape:pagecheckerboard="0"
     inkscape:deskcolor="#d1d1d1"
     inkscape:document-units="mm"
     showgrid="false"
     inkscape:zoom="0.5"
     inkscape:cx="70"
     inkscape:cy="561"
     inkscape:window-width="1920"
     inkscape:window-height="991"
     inkscape:window-x="-9"
     inkscape:window-y="-9"
     inkscape:window-maximized="1"
     inkscape:current-layer="layer1" /><defs
     id="defs34012" /><g
     inkscape:label="Calque 1"
     inkscape:groupmode="layer"
     id="layer1"
     transform="translate(-18.654675,-19.209159)"><path
       id="path34976"
       style="display:inline;fill:#f5ff31;fill-opacity:1;stroke:#717171;stroke-width:0;stroke-linejoin:round;paint-order:stroke fill markers"
       d="m 95.278422,156.40751 c -0.06703,-0.4397 -0.139997,-0.90239 -0.205155,-1.33325 l -0.136943,1.36787 z" /><path
       id="path35184"
       style="display:inline;fill:#f3ff31;fill-opacity:1;stroke:#717171;stroke-width:0;stroke-linejoin:round;paint-order:stroke fill markers"
       d="m 82.376884,19.209163 -27.889771,5.910234 0.184485,5.725749 -16.068786,1.846915 -3.324862,-2.0314 -8.311637,6.833691 1.108459,14.221871 -9.420097,2.031917 1.477946,3.878833 8.052222,8.236707 16.143717,16.513204 2.400887,10.52804 5.171778,-2.401404 -0.738973,5.356779 h -5.171778 l -0.368969,13.113411 -7.942151,3.50935 3.878316,11.08201 12.559957,8.31163 5.356262,10.15856 -2.216402,5.72575 1.477429,5.91075 5.725749,3.87883 4.432804,13.6679 -11.44943,12.05198 -6.096786,6.41821 -10.713041,20.1321 -3.878833,14.77636 1.477946,15.51482 2.400887,-0.73897 1.846916,-9.41958 c 0,0 9.789149,4.61757 10.158553,5.72574 0.369403,1.10821 16.43879,19.94762 16.43879,19.94762 l 8.865609,6.83421 3.509346,-3.13986 17.916219,8.12664 -2.216919,5.35626 6.095234,5.54126 1.47795,-3.87883 5.72575,-2.03192 5.17126,3.69435 7.20369,-9.05061 -13.11393,-12.18995 -21.794532,-4.61781 -7.573181,-22.53351 -8.680607,-14.77636 -11.451498,1.66244 -3.509346,-9.60459 9.240262,-20.17086 5.905066,-12.89068 5.171778,-7.20318 -1.477946,-20.50211 1.8526,-0.22944 17.073893,-2.11512 1.945101,-0.24081 -1.341003,13.40797 c 0.06516,0.43085 0.138125,0.89355 0.205155,1.33325 l 19.606038,-1.9973 21.61005,14.40688 0.87953,-9.4201 -9.00668,-18.65468 12.37237,-11.07994 0.003,-0.002 14.40687,-4.98677 40.63422,1.10794 3.87883,-22.34851 -14.77584,-10.897523 -4.06384,-20.502108 -18.83916,-15.6993 -15.14584,-0.923458 -25.67337,2.954859 -19.76314,12.929443 -4.003371,-1.120862 -0.614432,-0.172082 0.719852,-1.9389 6.483321,-17.454749 -0.73897,-16.992761 c 0,0 -21.142359,-14.414417 -20.871076,-14.406356 z m -50.48064,46.243173 c 0.108029,0.0054 0.194617,0.01696 0.256315,0.03514 -0.0617,-0.01817 -0.148286,-0.02978 -0.256315,-0.03514 z m -0.875915,0.03307 c -0.35814,0.03061 -0.772857,0.07879 -1.21543,0.137459 0.442573,-0.05867 0.85729,-0.10685 1.21543,-0.137459 z" /><path
       id="path35181"
       style="display:inline;fill:#f3ff31;fill-opacity:1;stroke:#717171;stroke-width:0;stroke-linejoin:round;paint-order:stroke fill markers"
       d="m 108.06317,126.0538 0.59893,1.67639 -12.015286,5.22449 -2.177645,8.95242 1.945101,-0.24081 -1.341003,13.40797 c 0.06516,0.43086 0.138125,0.89355 0.205155,1.33325 l 19.606038,-1.9973 21.61005,14.40688 0.87953,-9.4201 -9.00668,-18.65468 12.37237,-11.07994 -0.73587,-0.18655 -18.28571,0.18448 z" /><path
       id="path35179"
       style="display:inline;fill:#3169ff;fill-opacity:1;stroke:#717171;stroke-width:0;stroke-linejoin:round;paint-order:stroke fill markers"
       d="m 73.790845,66.738562 c 0,0 -2.024311,-3.06e-4 -4.113961,0.01602 -1.044825,0.0082 -2.105728,0.02039 -2.938322,0.03876 -0.416299,0.0092 -0.775554,0.02006 -1.046965,0.03256 -0.135702,0.0062 -0.249442,0.01298 -0.337447,0.02015 -0.088,0.0072 -0.150283,0.01509 -0.182934,0.02325 -0.01633,0.0041 -0.0328,0.01626 -0.04961,0.03617 -0.01681,0.01992 -0.03392,0.04739 -0.05116,0.08216 -0.03447,0.06954 -0.06958,0.16786 -0.10542,0.290939 -0.03584,0.123078 -0.07227,0.270996 -0.109037,0.439766 -0.03677,0.168771 -0.07386,0.358205 -0.111105,0.564824 -0.07448,0.413234 -0.149522,0.894232 -0.223242,1.4118 -0.07372,0.517564 -0.146108,1.071761 -0.215491,1.630908 -0.138766,1.11829 -0.265359,2.257081 -0.365352,3.165181 -0.09999,0.9081 -0.173538,1.585382 -0.206189,1.781287 -0.002,0.01224 -0.0079,0.02367 -0.01757,0.03359 -0.0097,0.0099 -0.0232,0.01869 -0.04031,0.02635 -0.03422,0.01532 -0.08331,0.02586 -0.145727,0.03256 -0.06242,0.0067 -0.138206,0.0091 -0.22686,0.0078 -0.08865,-0.0014 -0.189885,-0.0066 -0.302824,-0.0155 -0.225874,-0.01786 -0.498473,-0.05032 -0.809769,-0.09508 -0.07609,-0.01094 -0.174169,-0.02898 -0.254765,-0.04134 l 2.523877,5.047753 -11.082011,8.127153 1.846916,24.195947 10.528039,6.6492 3.509347,-2.03191 4.248319,3.50934 3.324345,16.06931 -1.846916,5.72574 2.406572,0.50902 17.073893,-2.11512 2.177645,-8.95242 12.015289,-5.22449 -0.59893,-1.67639 -5.92315,-1.56476 -0.36949,-5.35678 5.35626,-1.29294 -3.13986,-20.317111 6.09524,-12.189954 3.50935,0.369487 -0.92346,-5.356779 -9.05061,-1.846916 -5.356267,2.955375 1.477429,-4.617806 -2.340426,-6.661609 -0.614432,-0.172082 0.719852,-1.9389 c -0.173517,0.0915 -0.366822,0.190702 -0.63407,0.317293 -0.322297,0.152669 -0.70825,0.329485 -1.147216,0.52555 -0.43897,0.196061 -0.930882,0.41175 -1.465027,0.642854 -1.068293,0.462215 -2.305557,0.986149 -3.625619,1.538408 -1.320059,0.552256 -2.723362,1.132434 -4.123262,1.707906 -1.399904,0.575469 -2.796325,1.146081 -4.104143,1.677934 -1.307815,0.531849 -2.527036,1.025022 -3.570841,1.446423 -2.08761,0.842798 -3.47524,1.397847 -3.47524,1.397847 z" /><path
       id="path35119"
       style="display:inline;fill:#ff86d5;fill-opacity:1;stroke:#717171;stroke-width:0;stroke-linejoin:round;paint-order:stroke fill markers"
       d="m 57.444039,183.27047 -6.096786,6.41821 -10.713041,20.1321 -3.878833,14.77636 1.477946,15.51482 2.400887,-0.73897 1.846916,-9.41958 c 0,0 9.789149,4.61756 10.158553,5.72574 0.369403,1.10821 16.43879,19.94762 16.43879,19.94762 l 8.865609,6.83421 3.509346,-3.13986 17.916219,8.12664 -2.216919,5.35626 6.095234,5.54126 1.47795,-3.87883 5.72575,-2.03192 5.17126,3.69435 7.20369,-9.05061 -13.11393,-12.18995 -21.794532,-4.61781 -7.573181,-22.53351 -8.680607,-14.77636 -11.451498,1.66244 -3.509346,-9.60459 9.240262,-20.17086 c -0.786782,-0.13308 -0.82996,-0.13609 -1.690852,-0.28474 -1.604593,-0.27705 -3.237866,-0.56579 -4.527889,-0.80821 -0.645012,-0.12121 -1.204148,-0.23052 -1.630909,-0.32143 -0.331622,-0.0706 -0.50019,-0.11818 -0.650089,-0.16278 z" /><path
       id="path35117"
       style="display:inline;fill:#5c33bb;fill-opacity:1;stroke:#717171;stroke-width:0;stroke-linejoin:round;paint-order:stroke fill markers"
       d="m 57.444039,183.27047 c 0.149899,0.0446 0.318467,0.0921 0.650089,0.16278 0.426761,0.0909 0.985897,0.20022 1.630909,0.32143 1.290023,0.24242 2.923296,0.53116 4.527889,0.80821 0.860892,0.14865 0.90407,0.15166 1.690852,0.28474 l 5.905066,-12.89068 5.171778,-7.20318 -1.477946,-20.50211 1.8526,-0.22944 -2.406572,-0.50902 1.846916,-5.72574 -3.324345,-16.06931 -4.248319,-3.50934 -3.509347,2.03191 -10.528039,-6.6492 -1.846916,-24.195943 11.082011,-8.127153 -2.523877,-5.047753 C 61.687651,76.182448 61.437185,76.143911 61.149239,76.09303 60.768142,76.02569 60.355642,75.948134 59.920374,75.862553 59.485103,75.776973 59.026836,75.6835 58.553015,75.584017 57.605376,75.385051 56.596432,75.162484 55.588338,74.933927 54.580244,74.705373 53.572903,74.4706 52.629346,74.247148 51.685788,74.023693 50.805757,73.811725 50.051725,73.628064 48.543666,73.260741 47.539734,73.00743 47.539734,73.00743 l 1.567346,-5.746419 -5.093746,-1.30638 v 9.665043 l -3.787366,-0.391708 -0.65319,-4.702038 c 0,0 -0.449016,-0.277307 -1.124479,-0.701766 C 37.772836,69.3997 36.87079,68.827995 35.96473,68.240279 35.511699,67.946421 35.057712,67.648509 34.630444,67.362813 34.203179,67.07712 33.802766,66.80361 33.456873,66.558728 c -0.172948,-0.122441 -0.332212,-0.237533 -0.47439,-0.343648 -0.142178,-0.106116 -0.267096,-0.203163 -0.371554,-0.288872 -0.104457,-0.08571 -0.188261,-0.159954 -0.248047,-0.221175 -0.02989,-0.03061 -0.05389,-0.05792 -0.07131,-0.08165 -0.01742,-0.02372 -0.02848,-0.04414 -0.03256,-0.06046 -0.0041,-0.01632 -0.01516,-0.03081 -0.03307,-0.04341 -0.01792,-0.0126 -0.04253,-0.02295 -0.07338,-0.03204 -0.0617,-0.01817 -0.148286,-0.02978 -0.256315,-0.03514 -0.108028,-0.0054 -0.237322,-0.0048 -0.384472,0.001 -0.147153,0.0058 -0.312374,0.01673 -0.491443,0.03204 -0.35814,0.03061 -0.772857,0.07879 -1.21543,0.137459 -0.44257,0.05867 -0.91299,0.128073 -1.382344,0.201538 -0.08109,0.01269 -0.156832,0.02637 -0.237712,0.03927 l 16.143717,16.513204 2.400887,10.52804 5.171778,-2.401404 -0.738973,5.356779 h -5.171778 l -0.368969,13.113411 -7.942151,3.50935 3.878316,11.08201 12.559957,8.31163 5.356262,10.15856 -2.216402,5.72575 1.477429,5.91075 5.725749,3.87883 4.432804,13.6679 z" /><path
       id="path35058"
       style="display:inline;fill:#ff3166;fill-opacity:1;stroke:#717171;stroke-width:0;stroke-linejoin:round;paint-order:stroke fill markers"
       d="m 97.398189,70.174011 2.340426,6.661609 -1.477429,4.617806 5.356264,-2.955375 9.05061,1.846916 0.92346,5.356779 -3.50935,-0.369487 -6.09524,12.189954 3.13986,20.317107 -5.35626,1.29294 0.36949,5.35678 19.57813,5.17126 18.28571,-0.18448 0.73587,0.18655 0.003,-0.002 14.40688,-4.98677 40.63421,1.10794 3.87883,-22.34851 -14.77584,-10.897523 -4.06384,-20.502108 -18.83916,-15.6993 -15.14584,-0.923458 -25.67337,2.954859 -19.76313,12.929443 z" /><path
       id="path34997"
       style="display:inline;fill:#43ff31;fill-opacity:1;stroke:#717171;stroke-width:0;stroke-linejoin:round;paint-order:stroke fill markers"
       d="m 28.184843,65.86368 c 0.08088,-0.0129 0.156622,-0.02658 0.237712,-0.03927 0.469356,-0.07346 0.939772,-0.142869 1.382344,-0.201538 0.442573,-0.05867 0.85729,-0.106849 1.21543,-0.137459 0.179069,-0.01531 0.34429,-0.02624 0.491443,-0.03204 0.147152,-0.0058 0.276444,-0.0064 0.384472,-0.001 0.108029,0.0054 0.194617,0.01696 0.256315,0.03514 0.03085,0.0091 0.05547,0.01944 0.07338,0.03204 0.01792,0.0126 0.02899,0.02708 0.03307,0.04341 0.0041,0.01633 0.01513,0.03674 0.03256,0.06046 0.01742,0.02372 0.04142,0.05104 0.07131,0.08165 0.05979,0.06122 0.14359,0.135467 0.248047,0.221175 0.104458,0.08571 0.229376,0.182756 0.371554,0.288872 0.142178,0.106115 0.301442,0.221207 0.47439,0.343648 0.345895,0.244882 0.746304,0.51839 1.173571,0.804085 0.427268,0.285696 0.881255,0.583608 1.334286,0.877466 0.906062,0.587716 1.808104,1.159421 2.483569,1.583883 0.675465,0.424461 1.124479,0.701766 1.124479,0.701766 l 0.65319,4.702038 3.787366,0.391708 v -9.665043 l 5.093746,1.30638 -1.567346,5.746419 c 0,0 1.003928,0.253311 2.511991,0.620634 0.754032,0.183661 1.634061,0.395629 2.577621,0.619084 0.943559,0.223454 1.950896,0.458223 2.958992,0.686779 1.008096,0.228557 2.017036,0.451124 2.964677,0.65009 0.473821,0.09948 0.932088,0.192955 1.367359,0.278536 0.43527,0.08558 0.847768,0.163134 1.228865,0.230477 0.381097,0.06734 0.731014,0.124214 1.042314,0.168982 0.311299,0.04477 0.583892,0.07723 0.809769,0.09508 0.112939,0.0089 0.21417,0.01412 0.302824,0.0155 0.08865,0.0014 0.164444,-0.0011 0.22686,-0.0078 0.06242,-0.0067 0.111502,-0.01723 0.145727,-0.03256 0.01711,-0.0077 0.03061,-0.01644 0.04031,-0.02635 0.0097,-0.0099 0.01553,-0.02135 0.01757,-0.03359 0.03265,-0.195905 0.106196,-0.873184 0.206189,-1.781287 0.09999,-0.908103 0.226586,-2.046888 0.365352,-3.165181 0.06938,-0.559147 0.141771,-1.113341 0.215491,-1.630908 0.07372,-0.517568 0.148757,-0.998563 0.223242,-1.4118 0.03724,-0.206619 0.07434,-0.396053 0.111105,-0.564824 0.03676,-0.16877 0.0732,-0.316688 0.109037,-0.439766 0.03584,-0.123079 0.07095,-0.221396 0.10542,-0.290939 0.01723,-0.03477 0.03435,-0.06225 0.05116,-0.08216 0.01681,-0.01992 0.03328,-0.03209 0.04961,-0.03617 0.03265,-0.0082 0.09493,-0.01608 0.182934,-0.02325 0.088,-0.0072 0.201742,-0.0139 0.337447,-0.02015 0.271411,-0.0125 0.630666,-0.02337 1.046965,-0.03256 0.832597,-0.01837 1.893494,-0.0306 2.938322,-0.03876 2.089656,-0.01633 4.113961,-0.01602 4.113961,-0.01602 l 1.567346,10.578682 c 0,0 1.387624,-0.555046 3.47524,-1.397847 1.043808,-0.421401 2.26302,-0.914571 3.570841,-1.446423 1.307821,-0.531853 2.704236,-1.102462 4.104143,-1.677934 1.399906,-0.575472 2.803197,-1.155647 4.123262,-1.707906 1.320065,-0.552259 2.557323,-1.076193 3.625619,-1.538408 0.534148,-0.231107 1.026057,-0.44679 1.465027,-0.642854 0.438969,-0.196065 0.824916,-0.372881 1.147216,-0.52555 0.267248,-0.126591 0.460553,-0.225793 0.63407,-0.317293 L 103.98693,50.60828 103.24796,33.615519 c 0,0 -21.142359,-14.414417 -20.871076,-14.406356 l -27.889771,5.910234 0.184485,5.725749 -16.068786,1.846915 -3.324862,-2.0314 -8.311637,6.833691 1.108459,14.221871 -9.420097,2.031917 1.477946,3.878833 z" /></g></svg>
