<?xml version="1.0" encoding="UTF-8" standalone="no"?>
<!-- Created with Inkscape (http://www.inkscape.org/) -->

<svg
   width="110.16626mm"
   height="208.61565mm"
   viewBox="0 0 110.16626 208.61565"
   version="1.1"
   id="svg5"
   xml:space="preserve"
   inkscape:version="1.2.2 (732a01da63, 2022-12-09)"
   sodipodi:docname="SUV.svg"
   xmlns:inkscape="http://www.inkscape.org/namespaces/inkscape"
   xmlns:sodipodi="http://sodipodi.sourceforge.net/DTD/sodipodi-0.dtd"
   xmlns="http://www.w3.org/2000/svg"
   xmlns:svg="http://www.w3.org/2000/svg"><sodipodi:namedview
     id="namedview7"
     pagecolor="#ffffff"
     bordercolor="#000000"
     borderopacity="0.25"
     inkscape:showpageshadow="2"
     inkscape:pageopacity="0.0"
     inkscape:pagecheckerboard="0"
     inkscape:deskcolor="#d1d1d1"
     inkscape:document-units="mm"
     showgrid="false"
     inkscape:zoom="0.73940797"
     inkscape:cx="172.43525"
     inkscape:cy="410.46352"
     inkscape:window-width="1920"
     inkscape:window-height="991"
     inkscape:window-x="-9"
     inkscape:window-y="-9"
     inkscape:window-maximized="1"
     inkscape:current-layer="layer1" /><defs
     id="defs2" /><g
     inkscape:label="Calque 1"
     inkscape:groupmode="layer"
     id="layer1"
     transform="translate(-43.141576,-53.31687)"><rect
       style="display:inline;fill:#424242;fill-opacity:1;stroke:#e3e3e3;stroke-width:0;stroke-linejoin:round;stroke-dasharray:none;paint-order:stroke fill markers"
       id="rect4294"
       width="43.118671"
       height="15.20783"
       x="76.665359"
       y="246.72469"
       ry="4.2481313" /><path
       id="path3377"
       style="fill:#424242;fill-opacity:1;stroke:#e3e3e3;stroke-width:0;stroke-linejoin:round;stroke-dasharray:none;paint-order:stroke fill markers"
       d="m 51.175753,208.42094 c -2.608502,0 -4.708703,1.89486 -4.708703,4.24832 v 34.44337 c 0,2.35347 2.100201,4.24832 4.708703,4.24832 h 8.826886 c 2.608504,0 4.708704,-1.89485 4.708704,-4.24832 v -34.44337 c 0,-2.35346 -2.1002,-4.24832 -4.708704,-4.24832 z m 85.270997,0 c -2.60849,0 -4.7087,1.89486 -4.7087,4.24832 v 34.44337 c 0,2.35347 2.10021,4.24832 4.7087,4.24832 h 8.82688 c 2.60851,0 4.70871,-1.89485 4.70871,-4.24832 v -34.44337 c 0,-2.35346 -2.1002,-4.24832 -4.70871,-4.24832 z" /><path
       style="fill:#424242;fill-opacity:1;stroke:#e3e3e3;stroke-width:0;stroke-linejoin:round;stroke-dasharray:none;paint-order:stroke fill markers"
       d="m 140.4488,120.94699 h 7.46424 l 5.39478,3.11468 v 5.10863 h -12.09995 z"
       id="path3381" /><path
       style="display:inline;fill:#424242;fill-opacity:1;stroke:#e3e3e3;stroke-width:0;stroke-linejoin:round;stroke-dasharray:none;paint-order:stroke fill markers"
       d="m 56.000598,120.94699 h -7.46424 l -5.39478,3.11468 v 5.10863 h 12.09995 z"
       id="path3383" /><rect
       style="fill:#525252;fill-opacity:1;stroke:#e3e3e3;stroke-width:0;stroke-linejoin:round;stroke-dasharray:none;paint-order:stroke fill markers"
       id="rect913"
       width="92.32048"
       height="128.46144"
       x="52.064457"
       y="125.59879"
       ry="4.2481313" /><path
       id="rect3300"
       style="display:inline;fill:#424242;fill-opacity:1;stroke:#e3e3e3;stroke-width:0;stroke-linejoin:round;stroke-dasharray:none;paint-order:stroke fill markers"
       d="m 55.775869,59.895291 c -2.353463,0 -4.24832,1.894857 -4.24832,4.24832 v 34.443375 c 0,2.353464 1.894857,4.248324 4.24832,4.248324 h 7.963855 c 2.353462,0 4.248319,-1.89486 4.248319,-4.248324 V 64.143611 c 0,-2.353463 -1.894857,-4.24832 -4.248319,-4.24832 z m 76.933811,0 c -2.35346,0 -4.24832,1.894857 -4.24832,4.24832 v 34.443375 c 0,2.353464 1.89486,4.248324 4.24832,4.248324 h 7.96385 c 2.35347,0 4.24832,-1.89486 4.24832,-4.248324 V 64.143611 c 0,-2.353463 -1.89485,-4.24832 -4.24832,-4.24832 z" /><rect
       style="display:inline;fill:#525252;fill-opacity:1;stroke:#e3e3e3;stroke-width:0;stroke-linejoin:round;stroke-dasharray:none;paint-order:stroke fill markers"
       id="rect3372"
       width="84.448196"
       height="67.630119"
       x="56.000599"
       y="53.316868"
       ry="4.8077655" /><path
       style="fill:#666666;fill-opacity:1;stroke:#4dbedb;stroke-width:0;stroke-linejoin:round;paint-order:stroke fill markers"
       d="m 66.80965,113.64401 12.002699,-60.327143 37.840661,0.178914 12.70301,60.294579 z"
       id="path1065"
       sodipodi:nodetypes="ccccc" /><path
       style="fill:#525252;fill-opacity:1;stroke:#4dbedb;stroke-width:0;stroke-linejoin:round;paint-order:stroke fill markers"
       d="M 144.22422,129.04272 H 52.12314 l 4.503155,-16.806 h 83.169985 z"
       id="path923" /><path
       style="display:inline;fill:#202828;fill-opacity:1;stroke:#e3e3e3;stroke-width:0;stroke-linejoin:round;stroke-dasharray:none;paint-order:stroke fill markers"
       d="m 59.520218,121.73142 2.538749,-7.6198 h 72.882103 l 1.88607,7.67482 z"
       id="path3386"
       sodipodi:nodetypes="ccccc" /><rect
       style="display:inline;fill:#424242;fill-opacity:1;stroke:#e3e3e3;stroke-width:0;stroke-linejoin:round;stroke-dasharray:none;paint-order:stroke fill markers"
       id="rect4297"
       width="16.460241"
       height="105.20241"
       x="68.345779"
       y="137.2283"
       ry="4.2481313" /><rect
       style="display:inline;fill:#424242;fill-opacity:1;stroke:#e3e3e3;stroke-width:0;stroke-linejoin:round;stroke-dasharray:none;paint-order:stroke fill markers"
       id="rect4303"
       width="16.460241"
       height="105.20241"
       x="112.71687"
       y="137.2283"
       ry="4.2481313" /><path
       style="fill:#586674;fill-opacity:1;stroke:#4dbedb;stroke-width:0;stroke-linejoin:round;paint-order:stroke fill markers"
       d="m 82.345934,114.10346 c 0,0 9.294173,0.0935 9.571987,0.0447 -5.35803,3.30592 -5.456928,7.64864 -5.456928,7.64864 l -9.214157,0.0895 c 0,0 5.235121,-3.52052 5.099098,-7.78284 z"
       id="path1997"
       sodipodi:nodetypes="ccccc" /><path
       style="fill:#586674;fill-opacity:1;stroke:#4dbedb;stroke-width:0;stroke-linejoin:round;paint-order:stroke fill markers"
       d="m 102.69759,114.10346 c 0,0 9.29417,0.0935 9.57199,0.0447 -5.35803,3.30592 -5.45693,7.64864 -5.45693,7.64864 l -9.214157,0.0895 c 0,0 5.235117,-3.52052 5.099097,-7.78284 z"
       id="path1999"
       sodipodi:nodetypes="ccccc" /></g></svg>
